<svg xmlns="http://www.w3.org/2000/svg" version="1.1" xmlns:xlink="http://www.w3.org/1999/xlink" xmlns:svgjs="http://svgjs.dev/svgjs" width="1500" height="1500" viewBox="0 0 1500 1500"><rect width="1500" height="1500" fill="#000000"></rect><g transform="matrix(0.6666666666666666,0,0,0.6666666666666666,249.85778443113782,249.85778443113765)"><svg viewBox="0 0 334 334" data-background-color="#ffffff" preserveAspectRatio="xMidYMid meet" height="1500" width="1500" xmlns="http://www.w3.org/2000/svg" xmlns:xlink="http://www.w3.org/1999/xlink"><g id="tight-bounds" transform="matrix(1,0,0,1,0.04749999999998522,0.04750000000001364)"><svg viewBox="0 0 333.90454557049503 333.90454557049503" height="333.90454557049503" width="333.90454557049503"><g><svg></svg></g><g><svg viewBox="0 0 333.90454557049503 333.90454557049503" height="333.90454557049503" width="333.90454557049503"><g><path d="M0 166.952c0-92.205 74.747-166.952 166.952-166.952 92.205 0 166.952 74.747 166.953 166.952 0 92.205-74.747 166.952-166.953 166.953-92.205 0-166.952-74.747-166.952-166.953zM166.952 316.63c82.665 0 149.677-67.013 149.678-149.678 0-82.665-67.013-149.677-149.678-149.677-82.665 0-149.677 67.013-149.677 149.677 0 82.665 67.013 149.677 149.677 149.678z" data-fill-palette-color="tertiary" fill="#ffffff" stroke="transparent"></path><ellipse rx="160.27418187383762" ry="160.27418187383762" cx="166.95227278524752" cy="166.95227278524752" fill="#ffffff" stroke="transparent" stroke-width="0" fill-opacity="1" data-fill-palette-color="tertiary"></ellipse></g><g transform="matrix(1,0,0,1,64.34803836419731,71.17305217166896)"><svg viewBox="0 0 205.20846884210042 191.55844122715712" height="191.55844122715712" width="205.20846884210042"><g><svg viewBox="0 0 205.20846884210042 191.55844122715712" height="191.55844122715712" width="205.20846884210042"><g><svg viewBox="0 0 205.20846884210042 191.55844122715712" height="191.55844122715712" width="205.20846884210042"><g id="textblocktransform"><svg viewBox="0 0 205.20846884210042 191.55844122715712" height="191.55844122715712" width="205.20846884210042" id="textblock"><g><svg viewBox="0 0 205.20846884210042 191.55844122715712" height="191.55844122715712" width="205.20846884210042"><g transform="matrix(1,0,0,1,0,0)"><svg width="205.20846884210042" viewBox="-3.83 -37.38 54.68 51.050000000000004" height="191.55844122715712" data-palette-color="#ffffff"><path d="M10.99-34.18L10.99-2.17Q10.99 4.15 8.45 8.06L8.45 8.06Q6.88 10.4 5.8 11.32 4.71 12.23 3.96 12.7L3.96 12.7Q2.32 13.67 1.2 13.67L1.2 13.67Q-1.86 13.67-3.83 12.13L-3.83 12.13-2.29 7.32-0.71 7.32Q-0.71 8.72 0.59 9.42L0.59 9.42Q1.12 9.69 1.97 9.69 2.81 9.69 3.61 9.29 4.42 8.89 5.03 8.06L5.03 8.06Q6.42 6.18 6.42 2.88L6.42 2.88 6.42-34.18 2.71-34.74 2.71-36.82 14.67-36.82 14.67-34.74 10.99-34.18ZM38.57-37.38L38.57-37.38Q43.53-37.38 47.65-36.13L47.65-36.13Q49.46-35.57 50.68-34.89L50.68-34.89 50.12-28.37 48.51-28.37Q48.51-31.08 45.85-32.71L45.85-32.71Q43.02-34.45 38.06-34.45L38.06-34.45Q31.64-34.45 27.44-30.13L27.44-30.13Q23.26-25.78 23.26-19.26L23.26-19.26Q23.26-12.35 27.12-7.54L27.12-7.54Q29.73-4.3 33.74-3.03L33.74-3.03Q35.79-2.37 38.4-2.37 41.01-2.37 43.04-2.67 45.07-2.98 46.36-3.66L46.36-3.66Q48.9-5 48.9-8.2L48.9-8.2 50.51-8.2 50.85-1.9Q46.6 0.56 38.33 0.56L38.33 0.56Q29.2 0.56 23.75-4.74L23.75-4.74Q18.55-9.79 18.55-17.77L18.55-17.77Q18.55-26.61 24.7-32.18L24.7-32.18Q30.39-37.38 38.57-37.38Z" opacity="1" transform="matrix(1,0,0,1,0,0)" fill="#000000" class="wordmark-text-0" data-fill-palette-color="quaternary" id="text-0"></path></svg></g></svg></g></svg></g></svg></g></svg></g></svg></g></svg></g><defs></defs></svg><rect width="333.90454557049503" height="333.90454557049503" fill="none" stroke="none" visibility="hidden"></rect></g></svg></g></svg>